<svg id="visual" viewBox="0 0 540 960" width="540" height="960" xmlns="http://www.w3.org/2000/svg" xmlns:xlink="http://www.w3.org/1999/xlink" version="1.1"><g stroke-width="1" stroke-linejoin="bevel"><path d="M274 509L296 567.3L290 508.3Z" fill="#e4e4e4" stroke="#e4e4e4"></path><path d="M228 562.3L296 595.7L296 567.3Z" fill="#e8e8e8" stroke="#e8e8e8"></path><path d="M274 509L228 562.3L296 567.3Z" fill="#f8f8f8" stroke="#f8f8f8"></path><path d="M296 595.7L353 563.3L296 567.3Z" fill="#f1f1f1" stroke="#f1f1f1"></path><path d="M296 567.3L353 563.3L290 508.3Z" fill="#f5f5f5" stroke="#f5f5f5"></path><path d="M353 563.3L354 498L290 508.3Z" fill="#f5f5f5" stroke="#f5f5f5"></path><path d="M290 508.3L234 446L274 509Z" fill="#fcfcfc" stroke="#fcfcfc"></path><path d="M170 506L197 567.3L228 562.3Z" fill="#eeeeee" stroke="#eeeeee"></path><path d="M228 562.3L200 615.7L296 595.7Z" fill="#e1e1e1" stroke="#e1e1e1"></path><path d="M296 595.7L357 595.7L353 563.3Z" fill="#dedede" stroke="#dedede"></path><path d="M353 563.3L416 547.7L354 498Z" fill="#f8f8f8" stroke="#f8f8f8"></path><path d="M295 414.7L234 446L290 508.3Z" fill="#f1f1f1" stroke="#f1f1f1"></path><path d="M274 509L170 506L228 562.3Z" fill="#eeeeee" stroke="#eeeeee"></path><path d="M145 561.3L188 596.7L197 567.3Z" fill="#e1e1e1" stroke="#e1e1e1"></path><path d="M197 567.3L188 596.7L228 562.3Z" fill="#dedede" stroke="#dedede"></path><path d="M296 595.7L300 663L357 595.7Z" fill="#f1f1f1" stroke="#f1f1f1"></path><path d="M401 463.7L354 452.7L354 498Z" fill="#ebebeb" stroke="#ebebeb"></path><path d="M354 498L354 452.7L290 508.3Z" fill="#ebebeb" stroke="#ebebeb"></path><path d="M188 596.7L200 615.7L228 562.3Z" fill="#fcfcfc" stroke="#fcfcfc"></path><path d="M234 446L170 506L274 509Z" fill="#fcfcfc" stroke="#fcfcfc"></path><path d="M354 452.7L295 414.7L290 508.3Z" fill="#eeeeee" stroke="#eeeeee"></path><path d="M293 668L300 663L296 595.7Z" fill="#e1e1e1" stroke="#e1e1e1"></path><path d="M200 615.7L293 668L296 595.7Z" fill="#f8f8f8" stroke="#f8f8f8"></path><path d="M395 643L416 547.7L357 595.7Z" fill="#e1e1e1" stroke="#e1e1e1"></path><path d="M357 595.7L416 547.7L353 563.3Z" fill="#e8e8e8" stroke="#e8e8e8"></path><path d="M416 547.7L416 513L354 498Z" fill="#e4e4e4" stroke="#e4e4e4"></path><path d="M188 596.7L190 637L200 615.7Z" fill="#eeeeee" stroke="#eeeeee"></path><path d="M200 615.7L190 637L293 668Z" fill="#ffffff" stroke="#ffffff"></path><path d="M81 609L190 637L188 596.7Z" fill="#e8e8e8" stroke="#e8e8e8"></path><path d="M416 513L401 463.7L354 498Z" fill="#fcfcfc" stroke="#fcfcfc"></path><path d="M354 452.7L375 399.3L295 414.7Z" fill="#dedede" stroke="#dedede"></path><path d="M170 506L145 561.3L197 567.3Z" fill="#f8f8f8" stroke="#f8f8f8"></path><path d="M288 707.7L350 669.3L300 663Z" fill="#ebebeb" stroke="#ebebeb"></path><path d="M300 663L350 669.3L357 595.7Z" fill="#dedede" stroke="#dedede"></path><path d="M428 467L409 456.7L401 463.7Z" fill="#e8e8e8" stroke="#e8e8e8"></path><path d="M401 463.7L398 412.3L354 452.7Z" fill="#ffffff" stroke="#ffffff"></path><path d="M350 669.3L395 643L357 595.7Z" fill="#f5f5f5" stroke="#f5f5f5"></path><path d="M170 404.3L139 478L234 446Z" fill="#e4e4e4" stroke="#e4e4e4"></path><path d="M234 446L139 478L170 506Z" fill="#ffffff" stroke="#ffffff"></path><path d="M170 506L139 478L145 561.3Z" fill="#dedede" stroke="#dedede"></path><path d="M295 414.7L204 398.7L234 446Z" fill="#e4e4e4" stroke="#e4e4e4"></path><path d="M83 655.3L184 666L190 637Z" fill="#dedede" stroke="#dedede"></path><path d="M190 637L184 666L293 668Z" fill="#fcfcfc" stroke="#fcfcfc"></path><path d="M293 668L288 707.7L300 663Z" fill="#ffffff" stroke="#ffffff"></path><path d="M447 556.3L428 467L416 513Z" fill="#dedede" stroke="#dedede"></path><path d="M416 513L428 467L401 463.7Z" fill="#eeeeee" stroke="#eeeeee"></path><path d="M461 597.7L447 556.3L416 547.7Z" fill="#e1e1e1" stroke="#e1e1e1"></path><path d="M416 547.7L447 556.3L416 513Z" fill="#ffffff" stroke="#ffffff"></path><path d="M398 412.3L401 463.7L409 456.7Z" fill="#fcfcfc" stroke="#fcfcfc"></path><path d="M398 412.3L375 399.3L354 452.7Z" fill="#ebebeb" stroke="#ebebeb"></path><path d="M295 414.7L287 362.3L204 398.7Z" fill="#f8f8f8" stroke="#f8f8f8"></path><path d="M259 725.3L288 707.7L293 668Z" fill="#e4e4e4" stroke="#e4e4e4"></path><path d="M350 669.3L394 669.3L395 643Z" fill="#e1e1e1" stroke="#e1e1e1"></path><path d="M447 398.7L398 412.3L409 456.7Z" fill="#dedede" stroke="#dedede"></path><path d="M394 713.7L394 669.3L350 669.3Z" fill="#e1e1e1" stroke="#e1e1e1"></path><path d="M461 597.7L465 577.7L447 556.3Z" fill="#fcfcfc" stroke="#fcfcfc"></path><path d="M204 398.7L170 404.3L234 446Z" fill="#e1e1e1" stroke="#e1e1e1"></path><path d="M307 350.3L287 362.3L295 414.7Z" fill="#fcfcfc" stroke="#fcfcfc"></path><path d="M204 398.7L187 386.3L170 404.3Z" fill="#eeeeee" stroke="#eeeeee"></path><path d="M236 302L187 386.3L204 398.7Z" fill="#ffffff" stroke="#ffffff"></path><path d="M461 597.7L416 547.7L395 643Z" fill="#eeeeee" stroke="#eeeeee"></path><path d="M540 506L523 460L428 467Z" fill="#eeeeee" stroke="#eeeeee"></path><path d="M435 674.3L461 597.7L395 643Z" fill="#f5f5f5" stroke="#f5f5f5"></path><path d="M142 713.3L176 692.3L184 666Z" fill="#f1f1f1" stroke="#f1f1f1"></path><path d="M184 666L259 725.3L293 668Z" fill="#ffffff" stroke="#ffffff"></path><path d="M176 692.3L259 725.3L184 666Z" fill="#f8f8f8" stroke="#f8f8f8"></path><path d="M394 713.7L424 677L394 669.3Z" fill="#fcfcfc" stroke="#fcfcfc"></path><path d="M356 344L307 350.3L375 399.3Z" fill="#e4e4e4" stroke="#e4e4e4"></path><path d="M375 399.3L307 350.3L295 414.7Z" fill="#fcfcfc" stroke="#fcfcfc"></path><path d="M287 362.3L236 302L204 398.7Z" fill="#e4e4e4" stroke="#e4e4e4"></path><path d="M394 713.7L350 669.3L288 707.7Z" fill="#ffffff" stroke="#ffffff"></path><path d="M394 669.3L424 677L395 643Z" fill="#f5f5f5" stroke="#f5f5f5"></path><path d="M170 404.3L128 410.7L139 478Z" fill="#f5f5f5" stroke="#f5f5f5"></path><path d="M139 478L80 565.3L145 561.3Z" fill="#f5f5f5" stroke="#f5f5f5"></path><path d="M187 386.3L128 410.7L170 404.3Z" fill="#f8f8f8" stroke="#f8f8f8"></path><path d="M480 718.7L435 674.3L424 677Z" fill="#e4e4e4" stroke="#e4e4e4"></path><path d="M424 677L435 674.3L395 643Z" fill="#e4e4e4" stroke="#e4e4e4"></path><path d="M62 447L80 565.3L139 478Z" fill="#f5f5f5" stroke="#f5f5f5"></path><path d="M145 561.3L81 609L188 596.7Z" fill="#fcfcfc" stroke="#fcfcfc"></path><path d="M307 777L394 713.7L288 707.7Z" fill="#fcfcfc" stroke="#fcfcfc"></path><path d="M447 398.7L356 344L375 399.3Z" fill="#e4e4e4" stroke="#e4e4e4"></path><path d="M80 565.3L81 609L145 561.3Z" fill="#ebebeb" stroke="#ebebeb"></path><path d="M142 713.3L178 725.3L176 692.3Z" fill="#f8f8f8" stroke="#f8f8f8"></path><path d="M176 692.3L178 725.3L259 725.3Z" fill="#e4e4e4" stroke="#e4e4e4"></path><path d="M428 467L447 398.7L409 456.7Z" fill="#e1e1e1" stroke="#e1e1e1"></path><path d="M398 412.3L447 398.7L375 399.3Z" fill="#e8e8e8" stroke="#e8e8e8"></path><path d="M504 407.3L447 398.7L428 467Z" fill="#f8f8f8" stroke="#f8f8f8"></path><path d="M80 565.3L69 585.7L81 609Z" fill="#f5f5f5" stroke="#f5f5f5"></path><path d="M0 569.3L69 585.7L80 565.3Z" fill="#f1f1f1" stroke="#f1f1f1"></path><path d="M83 655.3L142 713.3L184 666Z" fill="#e4e4e4" stroke="#e4e4e4"></path><path d="M200 760.7L199 749.7L178 725.3Z" fill="#f1f1f1" stroke="#f1f1f1"></path><path d="M178 725.3L199 749.7L259 725.3Z" fill="#e8e8e8" stroke="#e8e8e8"></path><path d="M259 725.3L307 777L288 707.7Z" fill="#dedede" stroke="#dedede"></path><path d="M461 597.7L514 559.3L465 577.7Z" fill="#f8f8f8" stroke="#f8f8f8"></path><path d="M465 577.7L514 559.3L447 556.3Z" fill="#f5f5f5" stroke="#f5f5f5"></path><path d="M525 627L514 559.3L461 597.7Z" fill="#fcfcfc" stroke="#fcfcfc"></path><path d="M40 617.7L83 655.3L81 609Z" fill="#dedede" stroke="#dedede"></path><path d="M81 609L83 655.3L190 637Z" fill="#eeeeee" stroke="#eeeeee"></path><path d="M190 796L200 760.7L124 794Z" fill="#f1f1f1" stroke="#f1f1f1"></path><path d="M199 749.7L200 760.7L259 725.3Z" fill="#eeeeee" stroke="#eeeeee"></path><path d="M150 304L97 390.7L128 410.7Z" fill="#ffffff" stroke="#ffffff"></path><path d="M128 410.7L62 447L139 478Z" fill="#f8f8f8" stroke="#f8f8f8"></path><path d="M84 372.3L97 390.7L150 304Z" fill="#f1f1f1" stroke="#f1f1f1"></path><path d="M282 784.7L307 777L259 725.3Z" fill="#dedede" stroke="#dedede"></path><path d="M88 391.7L62 447L128 410.7Z" fill="#f5f5f5" stroke="#f5f5f5"></path><path d="M302 296.7L287 362.3L307 350.3Z" fill="#f1f1f1" stroke="#f1f1f1"></path><path d="M302 296.7L236 302L287 362.3Z" fill="#e1e1e1" stroke="#e1e1e1"></path><path d="M352 259.7L302 296.7L356 344Z" fill="#dedede" stroke="#dedede"></path><path d="M356 344L302 296.7L307 350.3Z" fill="#f5f5f5" stroke="#f5f5f5"></path><path d="M84 372.3L88 391.7L97 390.7Z" fill="#dedede" stroke="#dedede"></path><path d="M97 390.7L88 391.7L128 410.7Z" fill="#ebebeb" stroke="#ebebeb"></path><path d="M200 760.7L282 784.7L259 725.3Z" fill="#f5f5f5" stroke="#f5f5f5"></path><path d="M540 506L428 467L447 556.3Z" fill="#f8f8f8" stroke="#f8f8f8"></path><path d="M0 569.3L40 617.7L69 585.7Z" fill="#e4e4e4" stroke="#e4e4e4"></path><path d="M69 585.7L40 617.7L81 609Z" fill="#ebebeb" stroke="#ebebeb"></path><path d="M83 655.3L87 708.7L142 713.3Z" fill="#dedede" stroke="#dedede"></path><path d="M237 241.7L216 291L236 302Z" fill="#ffffff" stroke="#ffffff"></path><path d="M236 302L216 291L187 386.3Z" fill="#ebebeb" stroke="#ebebeb"></path><path d="M523 460L504 407.3L428 467Z" fill="#eeeeee" stroke="#eeeeee"></path><path d="M447 398.7L406 282L356 344Z" fill="#e1e1e1" stroke="#e1e1e1"></path><path d="M540 668L525 627L435 674.3Z" fill="#dedede" stroke="#dedede"></path><path d="M435 674.3L525 627L461 597.7Z" fill="#ebebeb" stroke="#ebebeb"></path><path d="M514 559.3L540 506L447 556.3Z" fill="#f1f1f1" stroke="#f1f1f1"></path><path d="M480 718.7L424 677L394 713.7Z" fill="#ebebeb" stroke="#ebebeb"></path><path d="M540 573.7L540 559.3L514 559.3Z" fill="#fcfcfc" stroke="#fcfcfc"></path><path d="M540 559.3L540 506L514 559.3Z" fill="#ebebeb" stroke="#ebebeb"></path><path d="M523 460L540 409.7L504 407.3Z" fill="#e4e4e4" stroke="#e4e4e4"></path><path d="M525 627L540 573.7L514 559.3Z" fill="#ffffff" stroke="#ffffff"></path><path d="M37 654L87 708.7L83 655.3Z" fill="#f8f8f8" stroke="#f8f8f8"></path><path d="M124 794L200 760.7L178 725.3Z" fill="#ffffff" stroke="#ffffff"></path><path d="M88 391.7L50 398.3L62 447Z" fill="#fcfcfc" stroke="#fcfcfc"></path><path d="M150 304L128 410.7L187 386.3Z" fill="#fcfcfc" stroke="#fcfcfc"></path><path d="M457 767.7L480 718.7L394 713.7Z" fill="#ffffff" stroke="#ffffff"></path><path d="M216 291L150 304L187 386.3Z" fill="#e8e8e8" stroke="#e8e8e8"></path><path d="M40 617.7L37 654L83 655.3Z" fill="#dedede" stroke="#dedede"></path><path d="M62 349L50 398.3L84 372.3Z" fill="#eeeeee" stroke="#eeeeee"></path><path d="M84 372.3L50 398.3L88 391.7Z" fill="#fcfcfc" stroke="#fcfcfc"></path><path d="M0 467L0 569.3L80 565.3Z" fill="#f5f5f5" stroke="#f5f5f5"></path><path d="M40 617.7L0 609.7L37 654Z" fill="#e4e4e4" stroke="#e4e4e4"></path><path d="M124 794L178 725.3L142 713.3Z" fill="#ebebeb" stroke="#ebebeb"></path><path d="M200 760.7L190 796L282 784.7Z" fill="#f5f5f5" stroke="#f5f5f5"></path><path d="M282 784.7L343 813.3L307 777Z" fill="#ffffff" stroke="#ffffff"></path><path d="M307 777L365 816L394 713.7Z" fill="#f8f8f8" stroke="#f8f8f8"></path><path d="M259 838L343 813.3L282 784.7Z" fill="#f5f5f5" stroke="#f5f5f5"></path><path d="M460 295L406 282L447 398.7Z" fill="#f1f1f1" stroke="#f1f1f1"></path><path d="M302 296.7L237 241.7L236 302Z" fill="#ffffff" stroke="#ffffff"></path><path d="M0 467L80 565.3L62 447Z" fill="#e8e8e8" stroke="#e8e8e8"></path><path d="M365 816L457 767.7L394 713.7Z" fill="#ebebeb" stroke="#ebebeb"></path><path d="M480 718.7L540 668L435 674.3Z" fill="#e1e1e1" stroke="#e1e1e1"></path><path d="M540 506L540 409.7L523 460Z" fill="#e1e1e1" stroke="#e1e1e1"></path><path d="M512 311L460 295L447 398.7Z" fill="#dedede" stroke="#dedede"></path><path d="M516 720.3L540 668L480 718.7Z" fill="#ffffff" stroke="#ffffff"></path><path d="M525 627L540 668L540 573.7Z" fill="#ebebeb" stroke="#ebebeb"></path><path d="M406 282L352 259.7L356 344Z" fill="#f8f8f8" stroke="#f8f8f8"></path><path d="M122 265.7L127 295.7L150 304Z" fill="#f1f1f1" stroke="#f1f1f1"></path><path d="M403 863.3L365 816L343 813.3Z" fill="#f5f5f5" stroke="#f5f5f5"></path><path d="M343 813.3L365 816L307 777Z" fill="#f8f8f8" stroke="#f8f8f8"></path><path d="M122 265.7L150 304L185 206.3Z" fill="#e1e1e1" stroke="#e1e1e1"></path><path d="M150 304L95 315L84 372.3Z" fill="#e8e8e8" stroke="#e8e8e8"></path><path d="M0 723.7L73 738.7L87 708.7Z" fill="#ffffff" stroke="#ffffff"></path><path d="M87 708.7L73 738.7L142 713.3Z" fill="#ffffff" stroke="#ffffff"></path><path d="M0 723.7L87 708.7L37 654Z" fill="#dedede" stroke="#dedede"></path><path d="M0 569.3L0 604L40 617.7Z" fill="#e8e8e8" stroke="#e8e8e8"></path><path d="M95 315L62 349L84 372.3Z" fill="#eeeeee" stroke="#eeeeee"></path><path d="M0 430.7L0 467L62 447Z" fill="#f8f8f8" stroke="#f8f8f8"></path><path d="M0 604L0 609.7L40 617.7Z" fill="#e1e1e1" stroke="#e1e1e1"></path><path d="M0 430.7L62 447L50 398.3Z" fill="#e1e1e1" stroke="#e1e1e1"></path><path d="M127 295.7L95 315L150 304Z" fill="#dedede" stroke="#dedede"></path><path d="M457 767.7L516 720.3L480 718.7Z" fill="#eeeeee" stroke="#eeeeee"></path><path d="M187 831L259 838L190 796Z" fill="#e4e4e4" stroke="#e4e4e4"></path><path d="M190 796L259 838L282 784.7Z" fill="#ffffff" stroke="#ffffff"></path><path d="M345 241.3L237 241.7L302 296.7Z" fill="#f8f8f8" stroke="#f8f8f8"></path><path d="M73 738.7L124 794L142 713.3Z" fill="#eeeeee" stroke="#eeeeee"></path><path d="M512 311L447 398.7L504 407.3Z" fill="#f8f8f8" stroke="#f8f8f8"></path><path d="M392 250.7L345 241.3L352 259.7Z" fill="#eeeeee" stroke="#eeeeee"></path><path d="M0 359L0 430.7L50 398.3Z" fill="#e8e8e8" stroke="#e8e8e8"></path><path d="M392 250.7L352 259.7L406 282Z" fill="#eeeeee" stroke="#eeeeee"></path><path d="M352 259.7L345 241.3L302 296.7Z" fill="#dedede" stroke="#dedede"></path><path d="M345 241.3L237 238.3L237 241.7Z" fill="#e8e8e8" stroke="#e8e8e8"></path><path d="M185 206.3L150 304L216 291Z" fill="#e1e1e1" stroke="#e1e1e1"></path><path d="M124 794L187 831L190 796Z" fill="#ffffff" stroke="#ffffff"></path><path d="M423 255.7L392 250.7L406 282Z" fill="#e8e8e8" stroke="#e8e8e8"></path><path d="M516 720.3L540 709.3L540 668Z" fill="#e8e8e8" stroke="#e8e8e8"></path><path d="M540 752.7L540 709.3L516 720.3Z" fill="#eeeeee" stroke="#eeeeee"></path><path d="M0 609.7L0 670.3L37 654Z" fill="#ebebeb" stroke="#ebebeb"></path><path d="M73 738.7L78 821.3L124 794Z" fill="#e4e4e4" stroke="#e4e4e4"></path><path d="M460 295L423 255.7L406 282Z" fill="#ebebeb" stroke="#ebebeb"></path><path d="M392 250.7L353 195L345 241.3Z" fill="#fcfcfc" stroke="#fcfcfc"></path><path d="M185 206.3L216 291L237 241.7Z" fill="#ebebeb" stroke="#ebebeb"></path><path d="M127 295.7L122 265.7L95 315Z" fill="#dedede" stroke="#dedede"></path><path d="M0 355.3L0 359L62 349Z" fill="#ebebeb" stroke="#ebebeb"></path><path d="M62 349L0 359L50 398.3Z" fill="#fcfcfc" stroke="#fcfcfc"></path><path d="M187 831L245 857.3L259 838Z" fill="#ebebeb" stroke="#ebebeb"></path><path d="M259 838L274 863.3L343 813.3Z" fill="#fcfcfc" stroke="#fcfcfc"></path><path d="M540 409.7L540 346.3L504 407.3Z" fill="#f8f8f8" stroke="#f8f8f8"></path><path d="M460 295L457 258.7L423 255.7Z" fill="#dedede" stroke="#dedede"></path><path d="M540 346.3L512 311L504 407.3Z" fill="#e1e1e1" stroke="#e1e1e1"></path><path d="M403 863.3L419 832.3L365 816Z" fill="#ebebeb" stroke="#ebebeb"></path><path d="M365 816L419 832.3L457 767.7Z" fill="#e8e8e8" stroke="#e8e8e8"></path><path d="M457 767.7L540 752.7L516 720.3Z" fill="#ebebeb" stroke="#ebebeb"></path><path d="M251 866.7L274 863.3L259 838Z" fill="#fcfcfc" stroke="#fcfcfc"></path><path d="M439 826L478 801L457 767.7Z" fill="#e4e4e4" stroke="#e4e4e4"></path><path d="M419 832.3L439 826L457 767.7Z" fill="#f5f5f5" stroke="#f5f5f5"></path><path d="M186 889.3L251 866.7L245 857.3Z" fill="#ffffff" stroke="#ffffff"></path><path d="M245 857.3L251 866.7L259 838Z" fill="#e8e8e8" stroke="#e8e8e8"></path><path d="M512 311L457 258.7L460 295Z" fill="#f8f8f8" stroke="#f8f8f8"></path><path d="M400 181.3L353 195L392 250.7Z" fill="#ebebeb" stroke="#ebebeb"></path><path d="M540 346.3L540 325L512 311Z" fill="#dedede" stroke="#dedede"></path><path d="M475 197.3L448 210.3L457 258.7Z" fill="#f8f8f8" stroke="#f8f8f8"></path><path d="M478 801L540 752.7L457 767.7Z" fill="#f8f8f8" stroke="#f8f8f8"></path><path d="M0 355.3L62 349L0 239.7Z" fill="#fcfcfc" stroke="#fcfcfc"></path><path d="M46 234.7L62 349L95 315Z" fill="#f1f1f1" stroke="#f1f1f1"></path><path d="M0 670.3L0 723.7L37 654Z" fill="#fcfcfc" stroke="#fcfcfc"></path><path d="M124 794L105 885.7L187 831Z" fill="#ffffff" stroke="#ffffff"></path><path d="M329 934.7L403 863.3L343 813.3Z" fill="#f5f5f5" stroke="#f5f5f5"></path><path d="M419 832.3L403 863.3L439 826Z" fill="#f1f1f1" stroke="#f1f1f1"></path><path d="M497 856.3L540 790L478 801Z" fill="#e8e8e8" stroke="#e8e8e8"></path><path d="M478 801L540 790L540 752.7Z" fill="#e4e4e4" stroke="#e4e4e4"></path><path d="M329 934.7L343 813.3L274 863.3Z" fill="#e4e4e4" stroke="#e4e4e4"></path><path d="M237 238.3L185 206.3L237 241.7Z" fill="#e1e1e1" stroke="#e1e1e1"></path><path d="M122 265.7L83 251.3L95 315Z" fill="#fcfcfc" stroke="#fcfcfc"></path><path d="M247 174.3L185 206.3L237 238.3Z" fill="#ffffff" stroke="#ffffff"></path><path d="M287 183L237 238.3L345 241.3Z" fill="#f1f1f1" stroke="#f1f1f1"></path><path d="M14 790L78 821.3L73 738.7Z" fill="#e8e8e8" stroke="#e8e8e8"></path><path d="M187 831L186 889.3L245 857.3Z" fill="#ebebeb" stroke="#ebebeb"></path><path d="M99 195L83 251.3L122 265.7Z" fill="#f8f8f8" stroke="#f8f8f8"></path><path d="M448 210.3L392 250.7L423 255.7Z" fill="#e4e4e4" stroke="#e4e4e4"></path><path d="M353 195L287 183L345 241.3Z" fill="#e1e1e1" stroke="#e1e1e1"></path><path d="M497 856.3L478 801L439 826Z" fill="#e1e1e1" stroke="#e1e1e1"></path><path d="M105 885.7L186 889.3L187 831Z" fill="#ebebeb" stroke="#ebebeb"></path><path d="M294 960L329 934.7L274 863.3Z" fill="#f1f1f1" stroke="#f1f1f1"></path><path d="M180 131L145 202.3L185 206.3Z" fill="#ebebeb" stroke="#ebebeb"></path><path d="M185 206.3L145 202.3L122 265.7Z" fill="#e1e1e1" stroke="#e1e1e1"></path><path d="M301 114.7L247 174.3L287 183Z" fill="#ffffff" stroke="#ffffff"></path><path d="M287 183L247 174.3L237 238.3Z" fill="#e1e1e1" stroke="#e1e1e1"></path><path d="M540 250.3L457 258.7L512 311Z" fill="#ffffff" stroke="#ffffff"></path><path d="M457 258.7L448 210.3L423 255.7Z" fill="#ffffff" stroke="#ffffff"></path><path d="M353 195L329 170L287 183Z" fill="#ebebeb" stroke="#ebebeb"></path><path d="M0 723.7L14 790L73 738.7Z" fill="#fcfcfc" stroke="#fcfcfc"></path><path d="M78 821.3L83 859.3L124 794Z" fill="#f5f5f5" stroke="#f5f5f5"></path><path d="M400 181.3L329 170L353 195Z" fill="#fcfcfc" stroke="#fcfcfc"></path><path d="M448 210.3L400 181.3L392 250.7Z" fill="#e1e1e1" stroke="#e1e1e1"></path><path d="M0 843.3L83 859.3L78 821.3Z" fill="#f8f8f8" stroke="#f8f8f8"></path><path d="M0 723.7L0 793L14 790Z" fill="#dedede" stroke="#dedede"></path><path d="M14 790L0 843.3L78 821.3Z" fill="#eeeeee" stroke="#eeeeee"></path><path d="M403 863.3L497 856.3L439 826Z" fill="#ffffff" stroke="#ffffff"></path><path d="M432 937.7L497 856.3L403 863.3Z" fill="#f1f1f1" stroke="#f1f1f1"></path><path d="M99 195L46 234.7L83 251.3Z" fill="#e1e1e1" stroke="#e1e1e1"></path><path d="M83 251.3L46 234.7L95 315Z" fill="#ebebeb" stroke="#ebebeb"></path><path d="M540 325L540 250.3L512 311Z" fill="#ebebeb" stroke="#ebebeb"></path><path d="M448 210.3L460 142L400 181.3Z" fill="#ffffff" stroke="#ffffff"></path><path d="M83 859.3L105 885.7L124 794Z" fill="#e4e4e4" stroke="#e4e4e4"></path><path d="M27 886.7L105 885.7L83 859.3Z" fill="#e4e4e4" stroke="#e4e4e4"></path><path d="M166 128L99 195L145 202.3Z" fill="#e1e1e1" stroke="#e1e1e1"></path><path d="M145 202.3L99 195L122 265.7Z" fill="#e4e4e4" stroke="#e4e4e4"></path><path d="M540 250.3L540 243.7L457 258.7Z" fill="#ebebeb" stroke="#ebebeb"></path><path d="M540 243.7L475 197.3L457 258.7Z" fill="#e8e8e8" stroke="#e8e8e8"></path><path d="M196 928.7L251 866.7L186 889.3Z" fill="#e4e4e4" stroke="#e4e4e4"></path><path d="M294 960L274 863.3L251 866.7Z" fill="#ebebeb" stroke="#ebebeb"></path><path d="M144 921.7L196 928.7L186 889.3Z" fill="#f8f8f8" stroke="#f8f8f8"></path><path d="M329 934.7L410 922.7L403 863.3Z" fill="#f1f1f1" stroke="#f1f1f1"></path><path d="M147 960L144 921.7L142 960Z" fill="#eeeeee" stroke="#eeeeee"></path><path d="M105 885.7L144 921.7L186 889.3Z" fill="#fcfcfc" stroke="#fcfcfc"></path><path d="M46 234.7L0 239.7L62 349Z" fill="#e8e8e8" stroke="#e8e8e8"></path><path d="M0 237.3L0 239.7L46 234.7Z" fill="#ffffff" stroke="#ffffff"></path><path d="M0 159L0 237.3L46 234.7Z" fill="#ebebeb" stroke="#ebebeb"></path><path d="M540 243.7L501 187L475 197.3Z" fill="#eeeeee" stroke="#eeeeee"></path><path d="M475 197.3L460 142L448 210.3Z" fill="#f8f8f8" stroke="#f8f8f8"></path><path d="M361 85.7L301 114.7L329 170Z" fill="#f8f8f8" stroke="#f8f8f8"></path><path d="M210 92.3L190 134.7L247 174.3Z" fill="#e1e1e1" stroke="#e1e1e1"></path><path d="M247 174.3L190 134.7L185 206.3Z" fill="#f1f1f1" stroke="#f1f1f1"></path><path d="M99 195L61 132L46 234.7Z" fill="#e4e4e4" stroke="#e4e4e4"></path><path d="M180 131L190 134.7L186 119.7Z" fill="#f1f1f1" stroke="#f1f1f1"></path><path d="M0 793L0 843.3L14 790Z" fill="#f5f5f5" stroke="#f5f5f5"></path><path d="M540 888.7L540 868.3L497 856.3Z" fill="#f5f5f5" stroke="#f5f5f5"></path><path d="M497 856.3L540 868.3L540 790Z" fill="#dedede" stroke="#dedede"></path><path d="M301 114.7L287 183L329 170Z" fill="#e1e1e1" stroke="#e1e1e1"></path><path d="M190 134.7L180 131L185 206.3Z" fill="#f5f5f5" stroke="#f5f5f5"></path><path d="M243 960L251 866.7L196 928.7Z" fill="#ebebeb" stroke="#ebebeb"></path><path d="M243 960L294 960L251 866.7Z" fill="#ffffff" stroke="#ffffff"></path><path d="M402 960L432 937.7L410 922.7Z" fill="#f8f8f8" stroke="#f8f8f8"></path><path d="M238 960L243 960L196 928.7Z" fill="#f1f1f1" stroke="#f1f1f1"></path><path d="M147 960L238 960L196 928.7Z" fill="#dedede" stroke="#dedede"></path><path d="M361 85.7L329 170L400 181.3Z" fill="#e8e8e8" stroke="#e8e8e8"></path><path d="M361 960L410 922.7L329 934.7Z" fill="#ebebeb" stroke="#ebebeb"></path><path d="M410 922.7L432 937.7L403 863.3Z" fill="#e1e1e1" stroke="#e1e1e1"></path><path d="M186 119.7L166 128L180 131Z" fill="#f1f1f1" stroke="#f1f1f1"></path><path d="M180 131L166 128L145 202.3Z" fill="#e4e4e4" stroke="#e4e4e4"></path><path d="M294 960L361 960L329 934.7Z" fill="#ebebeb" stroke="#ebebeb"></path><path d="M210 92.3L186 119.7L190 134.7Z" fill="#ebebeb" stroke="#ebebeb"></path><path d="M0 843.3L27 886.7L83 859.3Z" fill="#f8f8f8" stroke="#f8f8f8"></path><path d="M144 921.7L147 960L196 928.7Z" fill="#dedede" stroke="#dedede"></path><path d="M522 928.7L540 888.7L497 856.3Z" fill="#f8f8f8" stroke="#f8f8f8"></path><path d="M501 187L460 142L475 197.3Z" fill="#eeeeee" stroke="#eeeeee"></path><path d="M361 960L402 960L410 922.7Z" fill="#e1e1e1" stroke="#e1e1e1"></path><path d="M432 937.7L522 928.7L497 856.3Z" fill="#f8f8f8" stroke="#f8f8f8"></path><path d="M540 243.7L540 181L501 187Z" fill="#ebebeb" stroke="#ebebeb"></path><path d="M501 187L540 181L460 142Z" fill="#e8e8e8" stroke="#e8e8e8"></path><path d="M142 960L144 921.7L62 960Z" fill="#f5f5f5" stroke="#f5f5f5"></path><path d="M62 960L144 921.7L105 885.7Z" fill="#ebebeb" stroke="#ebebeb"></path><path d="M231 78.3L247 174.3L248 74.7Z" fill="#f5f5f5" stroke="#f5f5f5"></path><path d="M231 78.3L210 92.3L247 174.3Z" fill="#e4e4e4" stroke="#e4e4e4"></path><path d="M186 119.7L126 89.3L166 128Z" fill="#eeeeee" stroke="#eeeeee"></path><path d="M166 128L61 132L99 195Z" fill="#f5f5f5" stroke="#f5f5f5"></path><path d="M481 960L522 928.7L432 937.7Z" fill="#dedede" stroke="#dedede"></path><path d="M0 843.3L0 897.7L27 886.7Z" fill="#e1e1e1" stroke="#e1e1e1"></path><path d="M27 886.7L62 960L105 885.7Z" fill="#ebebeb" stroke="#ebebeb"></path><path d="M398 73.3L400 181.3L460 142Z" fill="#e1e1e1" stroke="#e1e1e1"></path><path d="M398 73.3L361 85.7L400 181.3Z" fill="#e1e1e1" stroke="#e1e1e1"></path><path d="M540 181L462 114.7L460 142Z" fill="#eeeeee" stroke="#eeeeee"></path><path d="M248 74.7L247 174.3L301 114.7Z" fill="#f8f8f8" stroke="#f8f8f8"></path><path d="M126 89.3L186 119.7L210 92.3Z" fill="#f1f1f1" stroke="#f1f1f1"></path><path d="M126 89.3L61 132L166 128Z" fill="#e8e8e8" stroke="#e8e8e8"></path><path d="M402 960L481 960L432 937.7Z" fill="#e4e4e4" stroke="#e4e4e4"></path><path d="M346 45.3L248 74.7L301 114.7Z" fill="#eeeeee" stroke="#eeeeee"></path><path d="M61 132L0 159L46 234.7Z" fill="#fcfcfc" stroke="#fcfcfc"></path><path d="M0 960L62 960L27 886.7Z" fill="#f1f1f1" stroke="#f1f1f1"></path><path d="M123 0L126 89.3L210 92.3Z" fill="#ffffff" stroke="#ffffff"></path><path d="M61 132L0 79.3L0 159Z" fill="#eeeeee" stroke="#eeeeee"></path><path d="M77 69.7L126 89.3L123 0Z" fill="#f5f5f5" stroke="#f5f5f5"></path><path d="M462 114.7L398 73.3L460 142Z" fill="#dedede" stroke="#dedede"></path><path d="M361 85.7L346 45.3L301 114.7Z" fill="#ebebeb" stroke="#ebebeb"></path><path d="M77 69.7L82 89.3L126 89.3Z" fill="#ebebeb" stroke="#ebebeb"></path><path d="M126 89.3L82 89.3L61 132Z" fill="#ffffff" stroke="#ffffff"></path><path d="M481 960L540 960L522 928.7Z" fill="#f1f1f1" stroke="#f1f1f1"></path><path d="M522 928.7L540 960L540 888.7Z" fill="#f8f8f8" stroke="#f8f8f8"></path><path d="M77 69.7L73 89.7L82 89.3Z" fill="#eeeeee" stroke="#eeeeee"></path><path d="M82 89.3L73 89.7L61 132Z" fill="#ebebeb" stroke="#ebebeb"></path><path d="M353 38.3L346 45.3L361 85.7Z" fill="#dedede" stroke="#dedede"></path><path d="M123 0L210 92.3L231 78.3Z" fill="#fcfcfc" stroke="#fcfcfc"></path><path d="M387 0L353 38.3L398 73.3Z" fill="#eeeeee" stroke="#eeeeee"></path><path d="M398 73.3L353 38.3L361 85.7Z" fill="#f5f5f5" stroke="#f5f5f5"></path><path d="M309 0L263 0L248 74.7Z" fill="#f1f1f1" stroke="#f1f1f1"></path><path d="M0 897.7L0 960L27 886.7Z" fill="#e1e1e1" stroke="#e1e1e1"></path><path d="M252 0L231 78.3L248 74.7Z" fill="#f8f8f8" stroke="#f8f8f8"></path><path d="M73 89.7L0 79.3L61 132Z" fill="#f5f5f5" stroke="#f5f5f5"></path><path d="M462 114.7L505 67.7L398 73.3Z" fill="#dedede" stroke="#dedede"></path><path d="M540 77.3L505 67.7L462 114.7Z" fill="#f5f5f5" stroke="#f5f5f5"></path><path d="M540 181L540 77.3L462 114.7Z" fill="#f5f5f5" stroke="#f5f5f5"></path><path d="M540 77.3L540 67.7L505 67.7Z" fill="#ffffff" stroke="#ffffff"></path><path d="M387 0L309 0L353 38.3Z" fill="#f1f1f1" stroke="#f1f1f1"></path><path d="M309 0L346 45.3L353 38.3Z" fill="#eeeeee" stroke="#eeeeee"></path><path d="M309 0L248 74.7L346 45.3Z" fill="#dedede" stroke="#dedede"></path><path d="M387 0L398 73.3L407 0Z" fill="#fcfcfc" stroke="#fcfcfc"></path><path d="M263 0L252 0L248 74.7Z" fill="#e4e4e4" stroke="#e4e4e4"></path><path d="M0 67.7L73 89.7L77 69.7Z" fill="#dedede" stroke="#dedede"></path><path d="M0 67.7L0 79.3L73 89.7Z" fill="#dedede" stroke="#dedede"></path><path d="M407 0L398 73.3L454 0Z" fill="#fcfcfc" stroke="#fcfcfc"></path><path d="M540 67.7L514 40.3L505 67.7Z" fill="#f8f8f8" stroke="#f8f8f8"></path><path d="M21 15.3L0 67.7L77 69.7Z" fill="#fcfcfc" stroke="#fcfcfc"></path><path d="M454 0L398 73.3L505 67.7Z" fill="#e1e1e1" stroke="#e1e1e1"></path><path d="M252 0L123 0L231 78.3Z" fill="#e8e8e8" stroke="#e8e8e8"></path><path d="M514 40.3L454 0L505 67.7Z" fill="#dedede" stroke="#dedede"></path><path d="M123 0L90 0L77 69.7Z" fill="#ebebeb" stroke="#ebebeb"></path><path d="M90 0L85 0L77 69.7Z" fill="#eeeeee" stroke="#eeeeee"></path><path d="M85 0L21 15.3L77 69.7Z" fill="#dedede" stroke="#dedede"></path><path d="M540 67.7L540 0L514 40.3Z" fill="#ebebeb" stroke="#ebebeb"></path><path d="M514 40.3L540 0L454 0Z" fill="#f8f8f8" stroke="#f8f8f8"></path><path d="M85 0L0 0L21 15.3Z" fill="#f1f1f1" stroke="#f1f1f1"></path><path d="M21 15.3L0 0L0 67.7Z" fill="#f1f1f1" stroke="#f1f1f1"></path></g></svg>