<svg id="visual" viewBox="0 0 960 540" width="960" height="540" xmlns="http://www.w3.org/2000/svg" xmlns:xlink="http://www.w3.org/1999/xlink" version="1.1"><path d="M0 163L17.8 158.5C35.7 154 71.3 145 106.8 154C142.3 163 177.7 190 213.2 197.2C248.7 204.3 284.3 191.7 320 167.3C355.7 143 391.3 107 426.8 108.8C462.3 110.7 497.7 150.3 533.2 165.7C568.7 181 604.3 172 640 154C675.7 136 711.3 109 746.8 105.3C782.3 101.7 817.7 121.3 853.2 125.8C888.7 130.3 924.3 119.7 942.2 114.3L960 109L960 0L942.2 0C924.3 0 888.7 0 853.2 0C817.7 0 782.3 0 746.8 0C711.3 0 675.7 0 640 0C604.3 0 568.7 0 533.2 0C497.7 0 462.3 0 426.8 0C391.3 0 355.7 0 320 0C284.3 0 248.7 0 213.2 0C177.7 0 142.3 0 106.8 0C71.3 0 35.7 0 17.8 0L0 0Z" fill="#ebecee"></path><path d="M0 276L17.8 282.3C35.7 288.7 71.3 301.3 106.8 306.8C142.3 312.3 177.7 310.7 213.2 300.8C248.7 291 284.3 273 320 268.5C355.7 264 391.3 273 426.8 280.2C462.3 287.3 497.7 292.7 533.2 300.7C568.7 308.7 604.3 319.3 640 317.5C675.7 315.7 711.3 301.3 746.8 297.8C782.3 294.3 817.7 301.7 853.2 308.8C888.7 316 924.3 323 942.2 326.5L960 330L960 107L942.2 112.3C924.3 117.7 888.7 128.3 853.2 123.8C817.7 119.3 782.3 99.7 746.8 103.3C711.3 107 675.7 134 640 152C604.3 170 568.7 179 533.2 163.7C497.7 148.3 462.3 108.7 426.8 106.8C391.3 105 355.7 141 320 165.3C284.3 189.7 248.7 202.3 213.2 195.2C177.7 188 142.3 161 106.8 152C71.3 143 35.7 152 17.8 156.5L0 161Z" fill="#e4e5e6"></path><path d="M0 363L17.8 362C35.7 361 71.3 359 106.8 356.3C142.3 353.7 177.7 350.3 213.2 346.8C248.7 343.3 284.3 339.7 320 336.8C355.7 334 391.3 332 426.8 333.8C462.3 335.7 497.7 341.3 533.2 348.7C568.7 356 604.3 365 640 368.5C675.7 372 711.3 370 746.8 368.2C782.3 366.3 817.7 364.7 853.2 369.2C888.7 373.7 924.3 384.3 942.2 389.7L960 395L960 328L942.2 324.5C924.3 321 888.7 314 853.2 306.8C817.7 299.7 782.3 292.3 746.8 295.8C711.3 299.3 675.7 313.7 640 315.5C604.3 317.3 568.7 306.7 533.2 298.7C497.7 290.7 462.3 285.3 426.8 278.2C391.3 271 355.7 262 320 266.5C284.3 271 248.7 289 213.2 298.8C177.7 308.7 142.3 310.3 106.8 304.8C71.3 299.3 35.7 286.7 17.8 280.3L0 274Z" fill="#dddedf"></path><path d="M0 487L17.8 486.2C35.7 485.3 71.3 483.7 106.8 479.2C142.3 474.7 177.7 467.3 213.2 463.7C248.7 460 284.3 460 320 460.8C355.7 461.7 391.3 463.3 426.8 470.5C462.3 477.7 497.7 490.3 533.2 483.2C568.7 476 604.3 449 640 437.3C675.7 425.7 711.3 429.3 746.8 436.5C782.3 443.7 817.7 454.3 853.2 466C888.7 477.7 924.3 490.3 942.2 496.7L960 503L960 393L942.2 387.7C924.3 382.3 888.7 371.7 853.2 367.2C817.7 362.7 782.3 364.3 746.8 366.2C711.3 368 675.7 370 640 366.5C604.3 363 568.7 354 533.2 346.7C497.7 339.3 462.3 333.7 426.8 331.8C391.3 330 355.7 332 320 334.8C284.3 337.7 248.7 341.3 213.2 344.8C177.7 348.3 142.3 351.7 106.8 354.3C71.3 357 35.7 359 17.8 360L0 361Z" fill="#d6d7d7"></path><path d="M0 541L17.8 541C35.7 541 71.3 541 106.8 541C142.3 541 177.7 541 213.2 541C248.7 541 284.3 541 320 541C355.7 541 391.3 541 426.8 541C462.3 541 497.7 541 533.2 541C568.7 541 604.3 541 640 541C675.7 541 711.3 541 746.8 541C782.3 541 817.7 541 853.2 541C888.7 541 924.3 541 942.2 541L960 541L960 501L942.2 494.7C924.3 488.3 888.7 475.7 853.2 464C817.7 452.3 782.3 441.7 746.8 434.5C711.3 427.3 675.7 423.7 640 435.3C604.3 447 568.7 474 533.2 481.2C497.7 488.3 462.3 475.7 426.8 468.5C391.3 461.3 355.7 459.7 320 458.8C284.3 458 248.7 458 213.2 461.7C177.7 465.3 142.3 472.7 106.8 477.2C71.3 481.7 35.7 483.3 17.8 484.2L0 485Z" fill="#d0d0d0"></path></svg>