<svg id="visual" viewBox="0 0 960 540" width="960" height="540" xmlns="http://www.w3.org/2000/svg" xmlns:xlink="http://www.w3.org/1999/xlink" version="1.1"><path d="M0 109L87 109L87 93L175 93L175 168L262 168L262 98L349 98L349 158L436 158L436 190L524 190L524 168L611 168L611 185L698 185L698 179L785 179L785 147L873 147L873 109L960 109L960 239L960 0L960 0L873 0L873 0L785 0L785 0L698 0L698 0L611 0L611 0L524 0L524 0L436 0L436 0L349 0L349 0L262 0L262 0L175 0L175 0L87 0L87 0L0 0Z" fill="#eeeeee"></path><path d="M0 314L87 314L87 260L175 260L175 276L262 276L262 325L349 325L349 357L436 357L436 293L524 293L524 314L611 314L611 244L698 244L698 368L785 368L785 298L873 298L873 368L960 368L960 347L960 237L960 107L873 107L873 145L785 145L785 177L698 177L698 183L611 183L611 166L524 166L524 188L436 188L436 156L349 156L349 96L262 96L262 166L175 166L175 91L87 91L87 107L0 107Z" fill="#e1e1e1"></path><path d="M0 384L87 384L87 352L175 352L175 309L262 309L262 368L349 368L349 395L436 395L436 379L524 379L524 368L611 368L611 336L698 336L698 433L785 433L785 390L873 390L873 433L960 433L960 411L960 345L960 366L873 366L873 296L785 296L785 366L698 366L698 242L611 242L611 312L524 312L524 291L436 291L436 355L349 355L349 323L262 323L262 274L175 274L175 258L87 258L87 312L0 312Z" fill="#d5d5d5"></path><path d="M0 487L87 487L87 438L175 438L175 417L262 417L262 406L349 406L349 476L436 476L436 444L524 444L524 428L611 428L611 433L698 433L698 476L785 476L785 476L873 476L873 482L960 482L960 449L960 409L960 431L873 431L873 388L785 388L785 431L698 431L698 334L611 334L611 366L524 366L524 377L436 377L436 393L349 393L349 366L262 366L262 307L175 307L175 350L87 350L87 382L0 382Z" fill="#c8c8c8"></path><path d="M0 541L87 541L87 541L175 541L175 541L262 541L262 541L349 541L349 541L436 541L436 541L524 541L524 541L611 541L611 541L698 541L698 541L785 541L785 541L873 541L873 541L960 541L960 541L960 447L960 480L873 480L873 474L785 474L785 474L698 474L698 431L611 431L611 426L524 426L524 442L436 442L436 474L349 474L349 404L262 404L262 415L175 415L175 436L87 436L87 485L0 485Z" fill="#bcbcbc"></path></svg>